<svg version="1.1" xmlns="http://www.w3.org/2000/svg" viewBox="250 700 1500 700" preserveAspectRatio="xMidYMid meet">
  <defs>
        <linearGradient id="Gradient1" gradientUnits="userSpaceOnUse" x1="385.404" y1="976.949" x2="625.975" y2="952.048">
      <stop offset="0" stop-color="rgb(234,102,85)" />
      <stop offset="1" stop-color="rgb(189,90,165)" />
    </linearGradient>
    <linearGradient id="Gradient2" gradientUnits="userSpaceOnUse" x1="610.459" y1="832.721" x2="826.303" y2="819.445">
      <stop offset="0" stop-color="rgb(188,90,167)" />
      <stop offset="1" stop-color="rgb(128,81,254)" />
    </linearGradient>
    <linearGradient id="Gradient3" gradientUnits="userSpaceOnUse" x1="457.151" y1="1147.16" x2="749.541" y2="1069.83">
      <stop offset="0" stop-color="rgb(231,100,95)" />
      <stop offset="1" stop-color="rgb(151,83,226)" />
    </linearGradient>
    
    <filter id="MultiGradient">
        <feMerge>
            <feMergeNode in="SourceGraphic"/>
        </feMerge>
    </filter>
  </defs>

  <g transform="translate(-150, 0) scale(1.1,1)">
    <path fill="url(#Gradient1)" filter="url(#MultiGradient)" d="M 448.064 1064.01 C 448.355 1064.2 448.644 1064.4 448.938 1064.59 C 491.567 1092.51 734.298 997.706 750.364 1064.59 C 753.776 1078.79 745.521 1093.5 737.967 1104.97 C 724.47 1125.47 674.133 1180.01 648.91 1184.91 C 643.623 1185.94 638.938 1185.11 634.541 1181.94 C 630.686 1179.16 628.307 1175.35 627.713 1170.62 C 625.604 1153.84 655.402 1122.78 639.778 1109.89 C 629.802 1101.66 609.924 1104.33 598.071 1105.95 C 563.443 1110.7 514.941 1122.64 480.452 1118.06 C 469.097 1112.92 440.506 1120.36 447.167 1097.47 C 449.864 1088.2 444.698 1069.66 446.402 1064.37 L 448.064 1064.01 
        M 608.9 805.465 C 654.88 779.725 744.556 738.358 797.091 749.236 C 858.04 761.856 810.325 876.049 779.055 897.999 C 764.609 908.139 748.298 890.903 744.535 876.43 C 749.113 857.841 754.24 844.406 757.737 824.991 C 727.452 830.953 692.769 848.186 663.174 858.242 C 653.337 861.584 640.994 869.014 631.466 871.815 L 620.692 876.649 C 617.683 874.03 618.86 875.652 617.497 872.011 L 616.013 868.05 C 612.844 859.559 607.279 827.044 604.714 815.738 C 602.097 813.361 601.941 813.009 600.896 809.847 
        C 601.941 813.009 602.097 813.361 604.714 815.738 C 607.279 827.044 612.844 859.559 616.013 868.05 L 617.497 872.011 C 618.86 875.652 617.683 874.03 620.692 876.649 C 557.119 905.454 477.081 952.912 449.812 1020.7 C 444.351 1034.28 441.123 1050.41 448.064 1064.01 L 446.402 1064.37 C 444.698 1069.66 449.864 1088.2 447.167 1097.47 C 440.506 1120.36 469.097 1112.92 480.452 1118.06 C 373.899 1118.81 374.34 1035.36 420.099 961.666 C 462.53 893.33 531.037 847.011 600.896 809.847 z"/>

        <path fill="rgb(48,58,83)" fill-rule="evenodd" d="M 916.022 873.409 C 944.07 870.919 972.347 876.046 995.579 892.859 C 1030.03 917.791 1036.67 970.222 1010.3 1003.51 C 980.562 1041.04 923.049 1049.68 877.927 1055.14 C 880.334 1060.62 882.482 1065.01 885.448 1070.32 C 909.619 1113.6 969.478 1114.67 998.759 1076.39 C 1003.06 1070.76 1005.29 1065.5 1008.25 1058.87 C 1013.13 1065 1014.84 1068.52 1017.15 1075.8 C 1020.67 1091.4 1015.84 1107.56 1005.73 1119.69 C 969.955 1162.83 893.492 1162.04 851.787 1128.38 C 791.861 1080.02 787.76 971.618 835.739 913.675 C 856.796 888.245 883.555 876.355 916.022 873.409 M 922.962 906.233 C 961.264 904.33 967.365 945.696 958.425 974.235 C 950.172 1000.58 923.873 1016.06 900.297 1027.38 C 891.572 1031.3 882.542 1034.5 873.297 1036.96 C 867.69 997.387 872.2 915.696 922.962 906.233 z"/>

        <path fill="rgb(48,58,83)" d="M 1231.53 877.227 C 1242.69 877.123 1280.99 875.989 1289.81 878.335 C 1294.7 879.639 1298.78 882.993 1301.01 887.534 C 1302.91 891.334 1303.44 896.658 1302.26 900.622 C 1297.31 917.377 1290.46 935.167 1284.58 951.61 L 1245.78 1060.27 C 1227.37 1107.19 1211.92 1157.25 1194.51 1204.69 C 1184.39 1232.3 1192.16 1261.29 1211.28 1283.22 C 1192.45 1283.51 1174.06 1283.87 1155.22 1283.25 C 1123.95 1282.21 1121.71 1257.31 1131.3 1233.01 C 1142.5 1204.61 1154.41 1176.12 1166.71 1148.1 C 1125.44 1137.39 1120.9 1110.68 1107.53 1074.63 C 1083.07 1008.7 1057.2 943.159 1033.22 877.069 C 1059.93 878.36 1106.71 868.629 1118.93 899.526 C 1144.26 963.568 1164.52 1030.32 1189.51 1094.54 C 1192.1 1082.77 1199.1 1063.24 1203.02 1051.25 L 1227.97 975.059 C 1238.23 943.665 1253.77 906.742 1231.53 877.227 z"/>

    <path fill="rgb(48,58,83)" d="M 1526.23 873.379 C 1552.44 870.866 1588.46 876.063 1609.06 892.542 C 1668.75 940.281 1621.4 959.844 1574.04 966.222 C 1574.12 948.279 1572.43 928.909 1559.06 915.302 C 1551.46 907.677 1541.08 903.493 1530.32 903.722 C 1514.4 903.905 1493.07 917.002 1496.59 933.895 C 1503.78 968.376 1557.17 981.868 1584.41 997.059 C 1596.04 1003.54 1606.36 1007.88 1616.61 1016.39 C 1649.52 1040.72 1655.91 1083.81 1628.81 1115.51 C 1607.17 1140.83 1579.9 1149.49 1547.24 1152.76 C 1522.69 1154.22 1492.9 1147.02 1471.68 1134.52 C 1419.2 1103.58 1437.13 1060.86 1490.01 1048.17 C 1490.05 1049.63 1490.13 1051.08 1490.26 1052.53 C 1493.03 1087.01 1516.11 1122.35 1555.3 1119.31 C 1582.3 1117.21 1593.1 1092 1570.18 1075.03 C 1563.25 1069.9 1556.36 1065 1548.63 1060.96 C 1526.08 1048.87 1503.88 1037.41 1481.59 1024.81 C 1436.83 999.511 1424.77 951.058 1457.41 909.998 C 1474.09 889.012 1499.31 876.37 1526.23 873.379 z"/>

    <path fill="rgb(48,58,83)" d="M 1320.23 741.946 C 1336.96 742.21 1365.3 739.544 1379.5 746.151 C 1389.57 750.819 1397.01 759.774 1399.75 770.534 C 1402.44 780.865 1401.25 828.135 1401.24 841.623 L 1401.23 984.582 C 1401.23 1026.78 1398.1 1111.63 1410.65 1148.24 C 1391.98 1148.46 1362.04 1151.56 1345.84 1141.7 C 1326.11 1129.68 1328.71 1107.5 1328.74 1087.23 L 1328.83 1038.69 L 1328.86 890.992 C 1328.86 838.911 1331.26 793.178 1320.23 741.946 z"/>
  </g>

    <g transform="translate(-75, 22)">
    <path fill="rgb(48,58,83)" d="M 559.979 1188.3 C 572.005 1187.1 585.592 1187.7 596.602 1193.11 C 604.638 1196.99 610.738 1203.99 613.49 1212.49 C 622.265 1239.06 605.03 1265.05 579.42 1273.31 C 548.231 1280.07 520.898 1260.17 525.065 1227.49 C 527.974 1204.66 537.172 1191.88 559.979 1188.3 z"/>
  </g>
</svg>