<svg version="1.1" xmlns="http://www.w3.org/2000/svg" viewBox="250 700 1500 700" preserveAspectRatio="xMidYMid meet">
  <defs>
    <linearGradient id="Gradient1" gradientUnits="userSpaceOnUse" x1="385.404" y1="976.949" x2="625.975" y2="952.048">
      <stop offset="0" stop-color="rgb(234,102,85)" />
      <stop offset="1" stop-color="rgb(189,90,165)" />
    </linearGradient>

    <filter id="MultiGradient">
      <feMerge>
        <feMergeNode in="SourceGraphic"/>
      </feMerge>
    </filter>
  </defs>

  <!-- First swoosh -->
  <g transform="translate(-150, 0) scale(1.1,1)">
    <path fill="url(#Gradient1)" filter="url(#MultiGradient)" d="M 448.064 1064.01 C 448.355 1064.2 448.644 1064.4 448.938 1064.59 C 491.567 1092.51 734.298 997.706 750.364 1064.59 C 753.776 1078.79 745.521 1093.5 737.967 1104.97 C 724.47 1125.47 674.133 1180.01 648.91 1184.91 C 643.623 1185.94 638.938 1185.11 634.541 1181.94 C 630.686 1179.16 628.307 1175.35 627.713 1170.62 C 625.604 1153.84 655.402 1122.78 639.778 1109.89 C 629.802 1101.66 609.924 1104.33 598.071 1105.95 C 563.443 1110.7 514.941 1122.64 480.452 1118.06 C 469.097 1112.92 440.506 1120.36 447.167 1097.47 C 449.864 1088.2 444.698 1069.66 446.402 1064.37 L 448.064 1064.01  
        M 608.9 805.465 C 654.88 779.725 744.556 738.358 797.091 749.236 C 858.04 761.856 810.325 876.049 779.055 897.999 C 764.609 908.139 748.298 890.903 744.535 876.43 C 749.113 857.841 754.24 844.406 757.737 824.991 C 727.452 830.953 692.769 848.186 663.174 858.242 C 653.337 861.584 640.994 869.014 631.466 871.815 L 620.692 876.649 C 617.683 874.03 618.86 875.652 617.497 872.011 L 616.013 868.05 C 612.844 859.559 607.279 827.044 604.714 815.738 C 602.097 813.361 601.941 813.009 600.896 809.847  
        C 601.941 813.009 602.097 813.361 604.714 815.738 C 607.279 827.044 612.844 859.559 616.013 868.05 L 617.497 872.011 C 618.86 875.652 617.683 874.03 620.692 876.649 C 557.119 905.454 477.081 952.912 449.812 1020.7 C 444.351 1034.28 441.123 1050.41 448.064 1064.01 L 446.402 1064.37 C 444.698 1069.66 449.864 1088.2 447.167 1097.47 C 440.506 1120.36 469.097 1112.92 480.452 1118.06 C 373.899 1118.81 374.34 1035.36 420.099 961.666 C 462.53 893.33 531.037 847.011 600.896 809.847 z"/>
  </g>

  <!-- Dot -->
  <g transform="translate(-75, 22)">
    <path fill="rgb(48,58,83)" d="M 559.979 1188.3 C 572.005 1187.1 585.592 1187.7 596.602 1193.11 C 604.638 1196.99 610.738 1203.99 613.49 1212.49 C 622.265 1239.06 605.03 1265.05 579.42 1273.31 C 548.231 1280.07 520.898 1260.17 525.065 1227.49 C 527.974 1204.66 537.172 1191.88 559.979 1188.3 z"/>
  </g>
</svg>